REM DIRINDEX 1\2\6,1\2\7,1\2\8,1\2\9,1\3\10,1\3\11,1\4\12,1\4\13,1\4\14,1\5\15,1\5\16,1\5\17
REM DIRNAME folder01,folder02,folder03,folder04,folder05,folder06,folder07,folder08,folder09,folder10,folder11,folder12,folder13,folder14,folder15,folder16,folder17
TITLE ""
FILE "1900_2_sec05_0401_0415.mp3" MP3
  TRACK 01 AUDIO
    TITLE "0:"
    INDEX 01 00:00:00
  TRACK 02 AUDIO
    TITLE "12:cjc020_2903"
    INDEX 01 00:03:21
  TRACK 03 AUDIO
    TITLE "0:"
    INDEX 01 00:04:66
  TRACK 04 AUDIO
    TITLE "12:cjc020_2904"
    INDEX 01 00:05:32
  TRACK 05 AUDIO
    TITLE "0:"
    INDEX 01 00:06:55
  TRACK 06 AUDIO
    TITLE "13:cjc020_2905"
    INDEX 01 00:07:54
  TRACK 07 AUDIO
    TITLE "0:"
    INDEX 01 00:08:66
  TRACK 08 AUDIO
    TITLE "14:cjc020_2906"
    INDEX 01 00:08:72
  TRACK 09 AUDIO
    TITLE "0:"
    INDEX 01 00:10:12
  TRACK 10 AUDIO
    TITLE "13:cjc020_2907"
    INDEX 01 00:10:70
  TRACK 11 AUDIO
    TITLE "0:"
    INDEX 01 00:12:09
  TRACK 12 AUDIO
    TITLE "14:cjc020_2908"
    INDEX 01 00:12:12
  TRACK 13 AUDIO
    TITLE "0:"
    INDEX 01 00:14:33
  TRACK 14 AUDIO
    TITLE "13:cjc020_2909"
    INDEX 01 00:15:13
  TRACK 15 AUDIO
    TITLE "0:"
    INDEX 01 00:16:28
  TRACK 16 AUDIO
    TITLE "14:cjc020_2910"
    INDEX 01 00:16:32
  TRACK 17 AUDIO
    TITLE "0:"
    INDEX 01 00:17:39
  TRACK 18 AUDIO
    TITLE "13:cjc020_2911"
    INDEX 01 00:18:17
  TRACK 19 AUDIO
    TITLE "0:"
    INDEX 01 00:19:34
  TRACK 20 AUDIO
    TITLE "14:cjc020_2912"
    INDEX 01 00:19:36
  TRACK 21 AUDIO
    TITLE "0:"
    INDEX 01 00:21:57
  TRACK 22 AUDIO
    TITLE "13:cjc020_2913"
    INDEX 01 00:22:36
  TRACK 23 AUDIO
    TITLE "0:"
    INDEX 01 00:23:48
  TRACK 24 AUDIO
    TITLE "14:cjc020_2914"
    INDEX 01 00:23:51
  TRACK 25 AUDIO
    TITLE "0:"
    INDEX 01 00:25:07
  TRACK 26 AUDIO
    TITLE "13:cjc020_2915"
    INDEX 01 00:25:60
  TRACK 27 AUDIO
    TITLE "0:"
    INDEX 01 00:27:00
  TRACK 28 AUDIO
    TITLE "14:cjc020_2916"
    INDEX 01 00:27:06
  TRACK 29 AUDIO
    TITLE "0:"
    INDEX 01 00:29:48
  TRACK 30 AUDIO
    TITLE "13:cjc020_2917"
    INDEX 01 00:30:32
  TRACK 31 AUDIO
    TITLE "0:"
    INDEX 01 00:31:45
  TRACK 32 AUDIO
    TITLE "14:cjc020_2918"
    INDEX 01 00:31:47
  TRACK 33 AUDIO
    TITLE "0:"
    INDEX 01 00:32:64
  TRACK 34 AUDIO
    TITLE "13:cjc020_2919"
    INDEX 01 00:33:42
  TRACK 35 AUDIO
    TITLE "0:"
    INDEX 01 00:35:00
  TRACK 36 AUDIO
    TITLE "14:cjc020_2920"
    INDEX 01 00:35:02
  TRACK 37 AUDIO
    TITLE "0:"
    INDEX 01 00:37:46
  TRACK 38 AUDIO
    TITLE "13:cjc020_2921"
    INDEX 01 00:38:28
  TRACK 39 AUDIO
    TITLE "0:"
    INDEX 01 00:39:49
  TRACK 40 AUDIO
    TITLE "14:cjc020_2922"
    INDEX 01 00:39:51
  TRACK 41 AUDIO
    TITLE "0:"
    INDEX 01 00:40:66
  TRACK 42 AUDIO
    TITLE "13:cjc020_2923"
    INDEX 01 00:41:45
  TRACK 43 AUDIO
    TITLE "0:"
    INDEX 01 00:42:61
  TRACK 44 AUDIO
    TITLE "14:cjc020_2924"
    INDEX 01 00:42:63
  TRACK 45 AUDIO
    TITLE "0:"
    INDEX 01 00:47:03
  TRACK 46 AUDIO
    TITLE "13:cjc020_2925"
    INDEX 01 00:47:54
  TRACK 47 AUDIO
    TITLE "0:"
    INDEX 01 00:49:12
  TRACK 48 AUDIO
    TITLE "14:cjc020_2926"
    INDEX 01 00:49:14
  TRACK 49 AUDIO
    TITLE "0:"
    INDEX 01 00:50:31
  TRACK 50 AUDIO
    TITLE "13:cjc020_2927"
    INDEX 01 00:51:09
  TRACK 51 AUDIO
    TITLE "0:"
    INDEX 01 00:52:28
  TRACK 52 AUDIO
    TITLE "14:cjc020_2928"
    INDEX 01 00:52:32
  TRACK 53 AUDIO
    TITLE "0:"
    INDEX 01 00:53:64
  TRACK 54 AUDIO
    TITLE "13:cjc020_2929"
    INDEX 01 00:54:46
  TRACK 55 AUDIO
    TITLE "0:"
    INDEX 01 00:55:69
  TRACK 56 AUDIO
    TITLE "14:cjc020_2930"
    INDEX 01 00:56:00
  TRACK 57 AUDIO
    TITLE "0:"
    INDEX 01 00:57:70
  TRACK 58 AUDIO
    TITLE "13:cjc020_2931"
    INDEX 01 00:58:50
  TRACK 59 AUDIO
    TITLE "0:"
    INDEX 01 00:59:45
  TRACK 60 AUDIO
    TITLE "14:cjc020_2932"
    INDEX 01 00:59:49
  TRACK 61 AUDIO
    TITLE "0:"
    INDEX 01 01:02:48
  TRACK 62 AUDIO
    TITLE "13:cjc020_2933"
    INDEX 01 01:03:31
  TRACK 63 AUDIO
    TITLE "0:"
    INDEX 01 01:04:47
  TRACK 64 AUDIO
    TITLE "14:cjc020_2934"
    INDEX 01 01:04:52
  TRACK 65 AUDIO
    TITLE "0:"
    INDEX 01 01:09:18
